<?xml version="1.0" encoding="utf-8"?>
<!-- Generator: Adobe Illustrator 25.2.1, SVG Export Plug-In . SVG Version: 6.00 Build 0)  -->
<svg version="1.1" id="Layer_1" xmlns="http://www.w3.org/2000/svg" xmlns:xlink="http://www.w3.org/1999/xlink" x="0px" y="0px"
	 height="24" viewBox="0 0 24 24" width="24" style="enable-background:new 0 0 24 24;" xml:space="preserve">
<style type="text/css">
	.st0{fill:none;}
	.st1{fill:#F36F38;}
</style>
<g>
	<rect y="0" class="st0" width="24" height="24"/>
</g>
<g>
	<g>
		<path class="st1" d="M21,8c-1.5,0-2.3,1.4-1.9,2.5l-3.6,3.6c-0.3-0.1-0.7-0.1-1,0l-2.6-2.6C12.3,10.4,11.5,9,10,9
			c-1.4,0-2.3,1.4-1.9,2.5l-4.6,4.5C2.4,15.7,1,16.5,1,18c0,1.1,0.9,2,2,2c1.4,0,2.3-1.4,1.9-2.5l4.5-4.6c0.3,0.1,0.7,0.1,1,0
			l2.6,2.6C12.7,16.5,13.5,18,15,18c1.5,0,2.3-1.4,1.9-2.5l3.6-3.6c1.1,0.3,2.5-0.5,2.5-1.9C23,8.9,22.1,8,21,8z"/>
		<polygon class="st1" points="15,9 15.9,6.9 18,6 15.9,5.1 15,3 14.1,5.1 12,6 14.1,6.9 		"/>
		<polygon class="st1" points="3.5,11 4,9 6,8.5 4,8 3.5,6 3,8 1,8.5 3,9 		"/>
	</g>
</g>
</svg>
